<?xml version="1.0" encoding="UTF-8"?>
<svg width="38px" height="38px" viewBox="0 0 38 38" version="1.1" xmlns="http://www.w3.org/2000/svg" xmlns:xlink="http://www.w3.org/1999/xlink">
    <!-- Generator: Sketch 51.2 (57519) - http://www.bohemiancoding.com/sketch -->
    <title>icon_send-ns</title>
    <desc>Created with Sketch.</desc>
    <defs></defs>
    <g id="Page-1" stroke="none" stroke-width="1" fill="none" fill-rule="evenodd">
        <g id="Desktop" transform="translate(-1051.000000, -817.000000)">
            <g id="icon_send-ns" transform="translate(1052.000000, 818.000000)">
                <circle id="Oval" stroke="#FFFFFF" stroke-width="2" fill="#42A4F5" cx="18" cy="18" r="18"></circle>
                <g id="icon_send" transform="translate(9.000000, 11.000000)" fill="#FFFFFF">
                    <path d="M10.9763112,14.6283282 C10.6535264,14.6283282 10.3522605,14.4346574 10.2016276,14.1549105 L7.74846308,9.22706241 L2.84213396,6.77389786 C2.54086814,6.62326495 2.34719725,6.30048014 2.36871624,5.97769533 C2.39023523,5.63339153 2.58390611,5.33212571 2.90669092,5.22453077 L15.8180833,0.0599738066 C16.1408681,-0.0691401174 16.5066909,0.0169358319 16.7434019,0.253644693 C16.9801086,0.490353553 17.0661867,0.856176338 16.9370728,1.17896115 L11.7725159,14.0903536 C11.6434019,14.4131384 11.3421361,14.6068092 11.0193513,14.6283282 C10.9978302,14.6283282 10.9763112,14.6283282 10.9763112,14.6283282 Z M5.31681751,6.10680925 L8.75985548,7.82832824 C8.93200738,7.91440419 9.0611213,8.04351811 9.14719725,8.21567001 L10.8687162,11.658708 L14.5699821,2.38402444 L5.31681751,6.10680925 Z" id="Fill-1"></path>
                    <path d="M2.36708861,15.5582278 C2.15189873,15.5582278 1.93670886,15.4721519 1.76455696,15.3 C1.42025316,14.9556962 1.42025316,14.4177215 1.76455696,14.0734177 L4.19620253,11.6632911 C4.54050633,11.3189873 5.07848101,11.3189873 5.42278481,11.6632911 C5.76708861,12.0075949 5.76708861,12.5455696 5.42278481,12.8898734 L2.99113924,15.3 C2.81898734,15.4721519 2.60379747,15.5582278 2.36708861,15.5582278 Z" id="Fill-3"></path>
                    <path d="M0.860759494,12.3303797 C0.64556962,12.3303797 0.430379747,12.2443038 0.258227848,12.0721519 C-0.0860759494,11.7278481 -0.0860759494,11.1898734 0.258227848,10.8455696 L2.68987342,8.43544304 C3.03417722,8.09113924 3.5721519,8.09113924 3.9164557,8.43544304 C4.26075949,8.77974684 4.26075949,9.31772152 3.9164557,9.66202532 L1.48481013,12.0721519 C1.31265823,12.2443038 1.09746835,12.3303797 0.860759494,12.3303797 Z" id="Fill-4"></path>
                    <path d="M5.37974684,16.8493671 C5.16455696,16.8493671 4.94936709,16.7632911 4.77721519,16.5911392 C4.43291139,16.2468354 4.43291139,15.7088608 4.77721519,15.364557 L7.20886076,12.9544304 C7.55316456,12.6101266 8.09113924,12.6101266 8.43544304,12.9544304 C8.77974684,13.2987342 8.77974684,13.8367089 8.43544304,14.1810127 L6.00379747,16.5911392 C5.83164557,16.7632911 5.6164557,16.8493671 5.37974684,16.8493671 Z" id="Fill-5"></path>
                </g>
            </g>
        </g>
    </g>
</svg>