<?xml version="1.0" encoding="UTF-8"?>
<svg width="17px" height="17px" viewBox="0 0 17 17" version="1.1" xmlns="http://www.w3.org/2000/svg" xmlns:xlink="http://www.w3.org/1999/xlink">
    <!-- Generator: Sketch 51.2 (57519) - http://www.bohemiancoding.com/sketch -->
    <title>icon_coffee</title>
    <desc>Created with Sketch.</desc>
    <defs>
        <polygon id="path-1" points="0 0.177083333 17 0.177083333 17 16.8229167 0 16.8229167"></polygon>
    </defs>
    <g id="Symbols" stroke="none" stroke-width="1" fill="none" fill-rule="evenodd">
        <g id="icon_coffee">
            <g>
                <mask id="mask-2" fill="white">
                    <use xlink:href="#path-1"></use>
                </mask>
                <g id="Clip-2"></g>
                <path d="M6.09166667,16.15 C2.83333333,16.15 0.177083333,13.49375 0.177083333,10.2354167 L0.177083333,4.92291667 C0.177083333,4.53333333 0.495833333,4.21458333 0.885416667,4.21458333 L11.3333333,4.21458333 C11.7229167,4.21458333 12.0416667,4.53333333 12.0416667,4.92291667 L12.0416667,10.2354167 C12.00625,13.49375 9.35,16.15 6.09166667,16.15 Z M1.55833333,5.59583333 L1.55833333,10.2354167 C1.55833333,12.75 3.57708333,14.76875 6.09166667,14.76875 C8.60625,14.76875 10.625,12.7145833 10.625,10.2354167 L10.625,5.59583333 L1.55833333,5.59583333 Z" id="Fill-1" fill="#83889E" mask="url(#mask-2)"></path>
                <path d="M13.2458333,12.43125 C12.3604167,12.43125 11.5458333,12.1125 10.8729167,11.5104167 C10.73125,11.36875 10.625,11.1916667 10.625,10.9791667 L10.625,6.62291667 C10.625,6.41041667 10.6958333,6.23333333 10.8729167,6.09166667 C11.5458333,5.525 12.3604167,5.17083333 13.2458333,5.17083333 C15.2291667,5.17083333 16.8229167,6.8 16.8229167,8.78333333 C16.8229167,10.7666667 15.19375,12.43125 13.2458333,12.43125 Z M12.00625,10.6958333 C12.3604167,10.94375 12.7854167,11.0854167 13.2104167,11.0854167 C14.4145833,11.0854167 15.40625,10.09375 15.40625,8.85416667 C15.40625,7.61458333 14.4145833,6.62291667 13.2104167,6.62291667 C12.7854167,6.62291667 12.3604167,6.76458333 12.00625,7.0125 L12.00625,10.6958333 Z" id="Fill-3" fill="#83889E" mask="url(#mask-2)"></path>
                <path d="M2.62083333,3.11666667 C2.23125,3.11666667 1.9125,2.79791667 1.9125,2.40833333 L1.9125,0.885416667 C1.9125,0.495833333 2.23125,0.177083333 2.62083333,0.177083333 C3.01041667,0.177083333 3.32916667,0.495833333 3.32916667,0.885416667 L3.32916667,2.44375 C3.32916667,2.83333333 3.01041667,3.11666667 2.62083333,3.11666667 Z" id="Fill-4" fill="#83889E" mask="url(#mask-2)"></path>
                <path d="M6.09166667,3.11666667 C5.70208333,3.11666667 5.38333333,2.79791667 5.38333333,2.40833333 L5.38333333,0.885416667 C5.38333333,0.495833333 5.70208333,0.177083333 6.09166667,0.177083333 C6.48125,0.177083333 6.8,0.495833333 6.8,0.885416667 L6.8,2.44375 C6.8,2.83333333 6.48125,3.11666667 6.09166667,3.11666667 Z" id="Fill-5" fill="#83889E" mask="url(#mask-2)"></path>
                <path d="M9.5625,3.11666667 C9.17291667,3.11666667 8.85416667,2.79791667 8.85416667,2.40833333 L8.85416667,0.885416667 C8.85416667,0.495833333 9.17291667,0.177083333 9.5625,0.177083333 C9.95208333,0.177083333 10.2708333,0.495833333 10.2708333,0.885416667 L10.2708333,2.44375 C10.2708333,2.83333333 9.95208333,3.11666667 9.5625,3.11666667 Z" id="Fill-6" fill="#83889E" mask="url(#mask-2)"></path>
                <path d="M8.925,16.8229167 L3.29375,16.8229167 C2.90416667,16.8229167 2.58541667,16.5041667 2.58541667,16.1145833 C2.58541667,15.725 2.90416667,15.40625 3.29375,15.40625 L8.925,15.40625 C9.31458333,15.40625 9.63333333,15.725 9.63333333,16.1145833 C9.63333333,16.5041667 9.31458333,16.8229167 8.925,16.8229167 Z" id="Fill-7" fill="#83889E" mask="url(#mask-2)"></path>
            </g>
        </g>
    </g>
</svg>