<?xml version="1.0" encoding="UTF-8"?>
<svg width="17px" height="25px" viewBox="0 0 17 25" version="1.1" xmlns="http://www.w3.org/2000/svg" xmlns:xlink="http://www.w3.org/1999/xlink">
    <!-- Generator: Sketch 51.2 (57519) - http://www.bohemiancoding.com/sketch -->
    <title>icon_tea</title>
    <desc>Created with Sketch.</desc>
    <defs>
        <polygon id="path-1" points="0 0.15888786 17 0.15888786 17 24.5801392 0 24.5801392"></polygon>
    </defs>
    <g id="icon_tea" stroke="none" stroke-width="1" fill="none" fill-rule="evenodd">
        <g>
            <mask id="mask-2" fill="white">
                <use xlink:href="#path-1"></use>
            </mask>
            <g id="Clip-2"></g>
            <path d="M8.5,19.4592768 C7.65,19.4592768 0.177083333,19.377343 0.177083333,16.5915939 C0.177083333,15.4854877 1.31041667,14.6661497 3.68333333,14.1745469 C4.07291667,14.0926131 4.42708333,14.3793814 4.49791667,14.8300173 C4.56875,15.2806532 4.32083333,15.6903222 3.93125,15.772256 C2.54999965,16.0590243 1.9125,16.4277222 1.66458298,16.6325567 C2.23124965,17.1241636 4.56875,17.9025306 8.5,17.9025306 C12.43125,17.9025306 14.76875,17.1241595 15.3354167,16.6325567 C14.9458333,16.3048256 13.8479131,15.731285 12.1479167,15.4445167 C11.7583333,15.3625829 11.5104167,14.9529139 11.58125,14.5432449 C11.6520833,14.092609 12.00625,13.8058407 12.3604167,13.8877745 C13.1041667,14.0106752 16.8229167,14.7480794 16.8229167,16.6735236 C16.8229167,19.377343 9.35,19.4592768 8.5,19.4592768 Z" id="Fill-1" fill="#83889E" mask="url(#mask-2)"></path>
            <path d="M7.96875,17.4518988 C4.39166667,17.4518988 1.48750035,13.5600434 1.48750035,8.7669163 C1.48750035,8.31628042 1.80625035,7.94757833 2.19583369,7.94757833 C2.58541702,7.94757833 2.90416702,8.31628042 2.90416702,8.7669163 C2.90416702,12.6997386 5.20625,15.8541898 8.00416667,15.8541898 C10.8020833,15.8541898 13.1041667,12.6587717 13.1041667,8.7669163 C13.1041667,8.31628042 13.4229167,7.94757833 13.8125,7.94757833 C14.2020833,7.94757833 14.5208333,8.31628042 14.5208333,8.7669163 C14.45,13.5600434 11.5458333,17.4518988 7.96875,17.4518988 Z" id="Fill-3" fill="#83889E" mask="url(#mask-2)"></path>
            <path d="M7.96875,11.4297647 C4.85208333,11.4297647 1.48750035,10.487526 1.48750035,8.39821421 C1.48750035,6.30890238 4.85208333,5.32569682 7.96875,5.32569682 C11.0854167,5.32569682 14.45,6.26793549 14.45,8.35724731 C14.45,10.4465591 11.0854167,11.4297647 7.96875,11.4297647 Z M7.96875,6.92340586 C4.78125,6.92340586 2.93958333,7.94757833 2.86875,8.35724731 C2.93958333,8.7669163 4.78125,9.79108877 7.96875,9.79108877 C11.15625,9.79108877 12.9979167,8.7669163 13.06875,8.35724731 C12.9625,7.94757833 11.15625,6.92340586 7.96875,6.92340586 Z" id="Fill-4" fill="#83889E" mask="url(#mask-2)"></path>
            <path d="M14.875,13.6010103 L13.4583333,13.6010103 C13.06875,13.6010103 12.75,13.2323082 12.75,12.7816724 C12.75,12.3310365 13.06875,11.9623344 13.4583333,11.9623344 L14.875,11.9623344 C15.1583333,11.9623344 15.40625,11.6755661 15.40625,11.306864 L15.40625,10.118824 C15.40625,9.75012187 15.1583333,9.46335358 14.875,9.46335358 L14.13125,9.46335358 C13.7416667,9.46335358 13.4229167,9.09465149 13.4229167,8.6440156 C13.4229167,8.19337972 13.7416667,7.82467763 14.13125,7.82467763 L14.875,7.82467763 C15.9375,7.82467763 16.8229167,8.8488501 16.8229167,10.0778571 L16.8229167,11.2658971 C16.8229167,12.5768379 15.9729167,13.6010103 14.875,13.6010103 Z" id="Fill-5" fill="#83889E" mask="url(#mask-2)"></path>
            <path d="M5.48958333,4.75216024 C5.3125,4.75216024 5.17083333,4.67022644 5.02916667,4.54732574 C4.60416667,4.13765676 4.39166667,3.40025258 4.42708333,2.66284841 C4.42708333,2.45801392 4.4625,2.29414632 4.49791667,2.13027873 C4.53333333,2.00737803 4.53333333,1.88447734 4.53333333,1.76157664 C4.53333333,1.59770905 4.49791667,1.47480835 4.4625,1.39287455 C4.25,1.02417247 4.35625,0.532569682 4.675,0.28676829 C4.99375,0.0409668986 5.41875,0.163867594 5.63125,0.532569682 C5.80833333,0.901271769 5.91458333,1.35190765 5.91458333,1.80254354 C5.91458333,2.04834493 5.87916667,2.25317942 5.84375,2.41704702 C5.80833333,2.53994771 5.80833333,2.66284841 5.80833333,2.74478221 C5.80833333,2.9905836 5.87916667,3.23638499 5.91458333,3.27735189 C6.19791667,3.56412018 6.23333333,4.09668986 5.98541667,4.42442505 C5.87916667,4.67022644 5.66666667,4.75216024 5.48958333,4.75216024 Z" id="Fill-6" fill="#83889E" mask="url(#mask-2)"></path>
            <path d="M8.14583333,4.75216024 C7.96875,4.75216024 7.82708333,4.67022644 7.68541667,4.54732574 C7.26041667,4.13765676 7.04791667,3.40025258 7.08333333,2.66284841 C7.08333333,2.45801392 7.11875,2.29414632 7.15416667,2.13027873 C7.18958333,2.00737803 7.18958333,1.88447734 7.18958333,1.76157664 C7.18958333,1.59770905 7.15416667,1.47480835 7.11875,1.39287455 C6.90625,1.02417247 7.0125,0.532569682 7.33125,0.28676829 C7.65,0.0409668986 8.075,0.163867594 8.2875,0.532569682 C8.46458333,0.901271769 8.57083333,1.35190765 8.57083333,1.80254354 C8.57083333,2.04834493 8.53541667,2.25317942 8.5,2.41704702 C8.53541667,2.62188151 8.5,2.74478221 8.5,2.826716 C8.5,3.0725174 8.57083333,3.31831879 8.60625,3.35928569 C8.88958333,3.64605398 8.925,4.17862366 8.67708333,4.50635885 C8.53541667,4.67022644 8.35833333,4.75216024 8.14583333,4.75216024 Z" id="Fill-7" fill="#83889E" mask="url(#mask-2)"></path>
            <path d="M10.8375,4.75216024 C10.6604167,4.75216024 10.51875,4.67022644 10.3770833,4.54732574 C9.95208333,4.13765676 9.73958333,3.40025258 9.775,2.66284841 C9.775,2.45801392 9.81041667,2.29414632 9.84583333,2.13027873 C9.88125,2.00737803 9.91666667,1.88447734 9.91666667,1.80254354 C9.91666667,1.63867594 9.88125,1.51577525 9.84583333,1.43384145 C9.63333333,1.06513936 9.73958333,0.57353658 10.0583333,0.327735189 C10.3770833,0.0819337972 10.8020833,0.204834493 11.0145833,0.57353658 C11.1916667,0.942238668 11.2979167,1.39287455 11.2979167,1.84351044 C11.2979167,2.08931183 11.2625,2.29414632 11.2270833,2.45801392 C11.1916667,2.58091461 11.1916667,2.70381531 11.1916667,2.7857491 C11.1916667,3.0315505 11.2625,3.27735189 11.2979167,3.31831879 C11.58125,3.60508708 11.6166667,4.13765676 11.36875,4.46539195 C11.1916667,4.67022644 11.0145833,4.75216024 10.8375,4.75216024 Z" id="Fill-8" fill="#83889E" mask="url(#mask-2)"></path>
        </g>
    </g>
</svg>