<?xml version="1.0" encoding="UTF-8"?>
<svg width="17px" height="21px" viewBox="0 0 17 21" version="1.1" xmlns="http://www.w3.org/2000/svg" xmlns:xlink="http://www.w3.org/1999/xlink">
    <!-- Generator: Sketch 51.2 (57519) - http://www.bohemiancoding.com/sketch -->
    <title>icon_music</title>
    <desc>Created with Sketch.</desc>
    <defs>
        <polygon id="path-1" points="0.34 0.2125 16.6762443 0.2125 16.6762443 20.1875 0.34 20.1875"></polygon>
    </defs>
    <g id="Symbols" stroke="none" stroke-width="1" fill="none" fill-rule="evenodd">
        <g id="icon_music">
            <g>
                <mask id="mask-2" fill="white">
                    <use xlink:href="#path-1"></use>
                </mask>
                <g id="Clip-2"></g>
                <path d="M13.7275,16.49 C13.5575,16.49 13.345,16.4475 13.2175,16.32 L4.335,9.2225 C4.165,9.095 4.0375,8.84 4.0375,8.6275 C4.0375,8.3725 4.1225,8.16 4.2925,7.99 L8.16,4.1225 C8.33,3.9525 8.5425,3.8675 8.7975,3.8675 C9.0525,3.8675 9.265,3.995 9.3925,4.165 L16.49,13.0475 C16.745,13.3875 16.745,13.855 16.4475,14.1525 L14.365,16.235 C14.1525,16.405 13.94,16.49 13.7275,16.49 Z M6.0775,8.5 L13.6425,14.535 L14.6625,13.515 L8.6275,5.95 L6.0775,8.5 Z" id="Fill-1" fill="#83889E" mask="url(#mask-2)"></path>
                <path d="M4.845,9.3925 C4.8025,9.3925 4.8025,9.3925 4.845,9.3925 C3.655,9.35 2.55,8.8825 1.7,8.075 C0.85,7.225 0.34,6.035 0.34,4.845 C0.3825,3.57 0.85,2.4225 1.7,1.5725 C2.55,0.7225 3.74,0.2125 4.93,0.2125 C6.1625,0.2125 7.31,0.68 8.16,1.5725 C8.9675,2.38 9.4775,3.485 9.52,4.675 C9.52,4.8875 9.435,5.1425 9.265,5.3125 L5.355,9.2225 C5.27,9.3075 5.0575,9.3925 4.845,9.3925 Z M4.9725,1.87 C4.2075,1.87 3.4425,2.1675 2.89,2.72 C2.33749915,3.2725 2.03999957,3.995 2.03999957,4.8025 C2.03999957,5.61 2.33749957,6.3325 2.89,6.885 C3.315,7.31 3.91,7.6075 4.505,7.6925 L7.8625,4.335 C7.7775,3.6975 7.48,3.145 7.055,2.72 C6.5025,2.1675 5.7375,1.87 4.9725,1.87 Z" id="Fill-3" fill="#83889E" mask="url(#mask-2)"></path>
                <path d="M12.92,20.1875 C12.0275,20.1875 11.0925,19.8475 10.4125,19.1675 L5.44,14.1525 C5.2275,13.94 4.845,13.94 4.6325,14.1525 C4.42,14.365 4.42,14.705 4.6325,14.96 L8.075,18.4025 C8.415,18.7425 8.415,19.2525 8.075,19.5925 C7.735,19.9325 7.225,19.9325 6.885,19.5925 L3.4425,16.15 C2.5925,15.3 2.5925,13.855 3.4425,13.005 C3.8675,12.58 4.42,12.3675 5.015,12.3675 C5.015,12.3675 5.015,12.3675 5.015,12.3675 C5.61,12.3675 6.1625,12.58 6.5875,13.005 L11.6025,18.02 C12.325,18.7425 13.5575,18.7425 14.28,18.02 C14.62,17.68 14.8325,17.17 14.8325,16.7025 C14.8325,16.1925 14.62,15.725 14.28,15.385 C13.94,15.0450042 13.94,14.535 14.28,14.1950043 C14.62,13.8550043 15.13,13.8550043 15.47,14.1950043 C16.15,14.875 16.5325,15.7675042 16.5325,16.7025043 C16.5325,17.6375042 16.15,18.5300043 15.47,19.2100043 C14.7475,19.8475 13.855,20.1875 12.92,20.1875 Z" id="Fill-4" fill="#83889E" mask="url(#mask-2)"></path>
            </g>
        </g>
    </g>
</svg>