<?xml version="1.0" encoding="UTF-8"?>
<svg width="17px" height="10px" viewBox="0 0 17 10" version="1.1" xmlns="http://www.w3.org/2000/svg" xmlns:xlink="http://www.w3.org/1999/xlink">
    <!-- Generator: Sketch 51.2 (57519) - http://www.bohemiancoding.com/sketch -->
    <title>icon_shoe</title>
    <desc>Created with Sketch.</desc>
    <defs></defs>
    <g id="Symbols" stroke="none" stroke-width="1" fill="none" fill-rule="evenodd">
        <g id="icon_shoe" fill="#83889E">
            <g>
                <path d="M16.3627347,6.16242793 C16.2402072,5.96176511 15.6307313,5.19755228 13.6164383,5.5635087 C13.5978639,5.56688098 13.5800786,5.57205674 13.5631839,5.57877913 C12.8734182,5.40391011 8.01791141,4.06285957 6.46937587,0.654949022 C6.3800187,0.45813337 6.20766457,0.321133696 6.01106326,0.272942391 C6.00563804,0.271168478 6.00006685,0.269875 5.99448272,0.268452174 C5.98219098,0.265772826 5.96995283,0.263370652 5.95749109,0.261411957 C5.9548413,0.261097826 5.95243913,0.260173913 5.94976533,0.259933696 C5.93829587,0.25893587 5.92752489,0.25828913 5.9160887,0.257309783 C5.89760304,0.255609783 5.87933359,0.253022826 5.86063359,0.252948913 C3.47463185,0.0521086957 1.91522554,0.273977174 1.22842554,0.914529783 C0.973717685,1.15219533 0.916537076,1.379295 0.904063326,1.48888587 C0.86783762,1.60502913 0.862638391,1.73025076 0.894138467,1.85224793 C1.11762804,2.7179637 1.15895098,3.39917033 1.01062007,3.7701787 C0.684306913,4.58595696 0.316850804,5.50945239 0.296617663,7.07745293 C0.26650475,7.11290163 0.24445575,7.15493598 0.235128663,7.20164902 C0.123789935,7.75978674 0.158256141,8.58679793 0.208782728,8.89302337 C0.268873109,9.25681413 0.511670989,9.56141717 0.858228554,9.70812533 C0.99492075,9.76604913 1.13973359,9.79546283 1.28869609,9.79546283 L10.4400363,9.79528359 C10.4550148,9.795825 10.5072547,9.79690598 10.592068,9.79690598 C11.2760704,9.79690598 14.0768611,9.72057598 16.4973525,8.5411437 C16.7077589,8.43882772 16.8416542,8.22210359 16.8383152,7.98914076 C16.8338934,7.68363598 16.7862546,6.66119685 16.3627347,6.16242793 Z M15.6393034,6.24164609 C15.2287755,6.4013463 14.7328042,6.53379848 14.197404,6.64369239 C14.1115078,6.47334685 14.0434783,6.2488637 13.9976429,6.06426217 C14.8864584,5.94552457 15.3809865,6.09547935 15.6393034,6.24164609 Z M10.4299324,5.00113022 C10.4682101,5.01992076 10.5056304,5.0371425 10.5436384,5.05540087 C8.86819967,4.52781696 6.92879533,3.4826625 5.91511859,1.40914848 C5.82874935,1.23225978 5.67397913,1.10256087 5.49250043,1.04047391 C5.45835076,1.01580728 5.43424772,0.99507837 5.41995848,0.980305 C5.50089141,0.912996087 5.71373511,0.828454348 5.84429141,0.807791957 C5.85069783,0.80684587 5.85645011,0.808627174 5.86258489,0.808954239 C5.87000576,0.809597283 5.87707739,0.810103587 5.88452043,0.81074663 C5.92107413,0.821349457 5.95023837,0.852374457 5.96465326,0.884214348 C6.70134641,2.50557272 8.2453825,3.92915641 10.4299324,5.00113022 Z M4.90663054,0.747769022 C4.8859238,0.786227826 4.8683288,0.82651413 4.85821196,0.870679022 C4.84739663,0.917946413 4.84373054,0.972826848 4.85058783,1.03193511 C4.13230087,1.09137228 2.94036065,1.16015761 2.01265772,1.0687475 C2.48182076,0.86484913 3.34021913,0.686314022 4.90663054,0.747769022 Z M1.52526772,3.97607457 C1.77122446,3.36109402 1.60963022,2.40632413 1.43089185,1.71366098 C1.41853174,1.66602033 1.43793022,1.63182446 1.45642696,1.61161478 C1.4704113,1.59645707 1.50965913,1.56190087 1.57390065,1.57227641 C2.74178402,1.76093946 4.5230237,1.62262228 5.23454391,1.55432109 C5.31141717,1.54710348 5.38486087,1.5863513 5.41707217,1.65248685 C6.30985674,3.4787488 8.00836,4.83520467 10.3288785,5.5752387 C11.7867153,6.04026261 13.0427049,6.12660783 13.4463292,6.14275783 C13.4860168,6.31207783 13.5477213,6.5363688 13.6366498,6.74835511 C11.4094243,7.12766391 8.80496337,7.16916793 8.77067696,7.16970935 L2.1836463,7.16970935 C1.49723065,7.16970935 1.07932704,7.11228076 0.851078207,7.065285 C0.872303815,5.61324478 1.20357967,4.7804388 1.52526772,3.97607457 Z M11.9261929,8.03462685 C10.2564843,8.20567272 8.78251967,8.22807022 8.77067696,8.22824022 L2.1836463,8.22824022 C1.33415815,8.22824022 0.893980663,8.14023565 0.716912359,8.09223467 C0.71763412,7.93097859 0.723634196,7.76365609 0.737777087,7.60820772 C1.01278553,7.66505054 1.47023022,7.72405717 2.1836463,7.72405717 L8.77446685,7.72405717 C8.88490402,7.72254565 10.2537995,7.70044011 11.8526698,7.54253413 C11.8722493,7.66598554 11.8986289,7.83843022 11.9261929,8.03462685 Z M10.4473445,9.241115 L1.28869609,9.241115 C1.21452989,9.241115 1.14244065,9.2264987 1.07449997,9.1978075 C0.90379262,9.12544663 0.7846945,8.97783674 0.755732043,8.80279772 C0.749799598,8.76686489 0.744453837,8.71910228 0.739468772,8.66679402 C1.0145563,8.72360174 1.47067,8.78258804 2.1836463,8.78258804 L8.77446685,8.78258804 C8.79022326,8.78241804 10.2953589,8.75952348 11.9967374,8.5846988 C12.0193733,8.78352304 12.03787,8.98046435 12.0482455,9.15655109 C11.1094575,9.25507717 10.4646567,9.24200565 10.4473445,9.241115 Z M16.2546442,8.04273511 C15.0350827,8.63696272 13.6886421,8.93774261 12.5994465,9.08949163 C12.5647092,8.54324098 12.4611977,7.84070859 12.4046598,7.48321152 C13.720142,7.3303575 15.1087297,7.08160315 16.0388237,6.67617348 C16.1979825,6.9979188 16.277561,7.55172522 16.2839674,7.99708087 C16.2842372,8.01566815 16.272509,8.03407435 16.2546442,8.04273511 Z" id="Fill-1"></path>
                <path d="M4.02497728,6.2158412 C4.92155174,6.2158412 5.65102728,5.49385489 5.65102728,4.60621098 C5.65102728,3.71856891 4.92155174,2.99649207 4.02497728,2.99649207 C3.12831228,2.99649207 2.39883489,3.71856891 2.39883489,4.60621098 C2.39883489,5.49385489 3.12831228,6.2158412 4.02497728,6.2158412 Z M4.02497728,3.55083989 C4.61595641,3.55083989 5.09667946,4.02425478 5.09667946,4.60621098 C5.09667946,5.18816902 4.61595641,5.66149337 4.02497728,5.66149337 C3.4339963,5.66149337 2.95318272,5.18816902 2.95318272,4.60621098 C2.95318272,4.02425478 3.4339963,3.55083989 4.02497728,3.55083989 Z" id="Fill-3"></path>
                <path d="M3.53631413,4.75887467 L3.57312467,4.78530967 L3.55950065,4.82690424 C3.52196761,4.94085967 3.56211717,5.0660037 3.65874924,5.13701011 C3.75556239,5.20765804 3.88702043,5.20874087 3.984375,5.13872489 L4.02497728,5.10958283 L4.06548717,5.13872489 C4.11375978,5.17337163 4.17042152,5.190695 4.22708326,5.190695 C4.28464674,5.190695 4.34221022,5.17273967 4.39102239,5.13701011 C4.487745,5.06609239 4.52789641,4.94095022 4.49036152,4.82699478 L4.4767375,4.78540022 L4.51364043,4.75887467 C4.61144402,4.68867761 4.6527688,4.56335435 4.61586587,4.44876696 C4.57905348,4.33418141 4.4724062,4.25649696 4.3520462,4.25649696 L4.3027813,4.25649696 L4.28825554,4.21228587 C4.25090174,4.09860022 4.14470717,4.0217288 4.02497728,4.0217288 C3.90524739,4.0217288 3.79905098,4.09860022 3.76169717,4.21228587 L3.74717141,4.25649696 L3.69790837,4.25649696 C3.57754652,4.25649696 3.47089924,4.33418141 3.43408685,4.44876696 C3.39718576,4.56335435 3.4385087,4.68867761 3.53631413,4.75887467 Z" id="Fill-4"></path>
            </g>
        </g>
    </g>
</svg>