<?xml version="1.0" encoding="UTF-8"?>
<svg width="17px" height="12px" viewBox="0 0 17 12" version="1.1" xmlns="http://www.w3.org/2000/svg" xmlns:xlink="http://www.w3.org/1999/xlink">
    <!-- Generator: Sketch 51.2 (57519) - http://www.bohemiancoding.com/sketch -->
    <title>icon_car_active</title>
    <desc>Created with Sketch.</desc>
    <defs></defs>
    <g id="Symbols" stroke="none" stroke-width="1" fill="none" fill-rule="evenodd">
        <g id="icon_car" fill="#42A4F5">
            <g id="icon_car_active">
                <path d="M16.5219873,8.84503171 L14.7321353,8.84503171 C14.4841438,8.84503171 14.2792812,8.64376321 14.2792812,8.39217759 C14.2792812,7.75243129 13.7581395,7.22769556 13.1147992,7.22769556 C12.4750529,7.22769556 11.9503171,7.74883721 11.9503171,8.39217759 C11.9503171,8.64016913 11.7490486,8.84503171 11.497463,8.84503171 L6.38308668,8.84503171 C6.13509514,8.84503171 5.93023256,8.64376321 5.93023256,8.39217759 C5.93023256,7.75243129 5.40909091,7.22769556 4.76575053,7.22769556 C4.12600423,7.22769556 3.6012685,7.74883721 3.6012685,8.39217759 C3.6012685,8.64016913 3.40000036,8.84503171 3.14841474,8.84503171 L1.44841438,8.84503171 C1.20042283,8.84503171 0.995560254,8.64376321 0.995560254,8.39217759 L0.995560254,5.62473573 C0.995560254,4.61120507 1.81860465,3.78816068 2.83213531,3.78816068 L15.1382664,3.78816068 C16.151797,3.78816068 16.9748414,4.61120507 16.9748414,5.62473573 L16.9748414,8.39217759 C16.9748414,8.64376321 16.7699789,8.84503171 16.5219873,8.84503171 Z M15.1346723,7.94291755 L16.0727273,7.94291755 L16.0727273,5.62832981 C16.0727273,5.11437632 15.655814,4.697463 15.1418605,4.697463 L2.83213531,4.697463 C2.31818182,4.697463 1.9012685,5.11437632 1.9012685,5.62832981 L1.9012685,7.94291755 L2.7530659,7.94291755 C2.95792812,7.0192389 3.7845666,6.32917548 4.76934461,6.32917548 C5.75412262,6.32917548 6.5807611,7.0192389 6.78562368,7.94291755 L11.1021142,7.94291755 C11.3069767,7.0192389 12.1336152,6.32917548 13.1183932,6.32917548 C14.1031712,6.32917548 14.9262156,7.0192389 15.1346723,7.94291755 Z" id="Fill-1"></path>
                <path d="M14.2325581,4.69386892 L2.83213531,4.69386892 C2.69196617,4.69386892 2.5589852,4.62917548 2.47632135,4.51775899 C2.39006342,4.40634249 2.36131078,4.26257928 2.39725159,4.12600423 L3.07293869,1.56701903 C3.33171247,0.582241015 3.93551797,0.0143763214 4.72621564,0.0143763214 L11.6699789,0.0143763214 C12.5397463,0.0143763214 12.8991543,0.715221987 13.1866808,1.2794926 C13.2190275,1.34418605 13.2513742,1.40887949 13.287315,1.46997886 L14.6386892,4.02896406 C14.7141649,4.16913319 14.7069767,4.33805497 14.627907,4.47103594 C14.538055,4.61120507 14.3906977,4.69386892 14.2325581,4.69386892 Z M3.4179704,3.79175476 L13.4813953,3.79175476 L12.4786469,1.89408034 C12.4427061,1.82579281 12.4067653,1.75750529 12.3744186,1.69281184 C12.0940803,1.14291755 11.9539112,0.920084567 11.6627907,0.920084567 L4.72262156,0.920084567 C4.26976744,0.920084567 4.05052854,1.39809725 3.94270613,1.80063425 L3.4179704,3.79175476 Z" id="Fill-3"></path>
                <path d="M8.19450317,8.84503171 C7.94651163,8.84503171 7.74164905,8.64376321 7.74164905,8.39217759 L7.74164905,0.467230444 C7.74164905,0.219238901 7.94291755,0.0143763214 8.19450317,0.0143763214 C8.44249471,0.0143763214 8.64735729,0.21564482 8.64735729,0.467230444 L8.64735729,8.39217759 C8.64376321,8.64376321 8.44249471,8.84503171 8.19450317,8.84503171 Z" id="Fill-4"></path>
                <path d="M4.76934461,10.4587738 C3.63002114,10.4587738 2.70274841,9.53150106 2.70274841,8.39217759 C2.70274841,7.25285412 3.63002114,6.3255814 4.76934461,6.3255814 C5.90866808,6.3255814 6.8359408,7.25285412 6.8359408,8.39217759 C6.8359408,9.53150106 5.90866808,10.4587738 4.76934461,10.4587738 Z M4.76934461,7.23128964 C4.12959831,7.23128964 3.60486258,7.75243129 3.60486258,8.39577167 C3.60486258,9.03551797 4.12600423,9.5602537 4.76934461,9.5602537 C5.40909091,9.5602537 5.93382664,9.03911205 5.93382664,8.39577167 C5.93382664,7.75243129 5.40909091,7.23128964 4.76934461,7.23128964 Z" id="Fill-5"></path>
                <path d="M13.1183932,10.4587738 C11.9790698,10.4587738 11.051797,9.53150106 11.051797,8.39217759 C11.051797,7.25285412 11.9790698,6.3255814 13.1183932,6.3255814 C14.2577167,6.3255814 15.1849894,7.25285412 15.1849894,8.39217759 C15.1813953,9.53150106 14.2577167,10.4587738 13.1183932,10.4587738 Z M13.1183932,7.23128964 C12.4786469,7.23128964 11.9539112,7.75243129 11.9539112,8.39577167 C11.9539112,9.03551797 12.4750529,9.5602537 13.1183932,9.5602537 C13.7581395,9.5602537 14.2828753,9.03911205 14.2828753,8.39577167 C14.2792812,7.75243129 13.7581395,7.23128964 13.1183932,7.23128964 Z" id="Fill-6"></path>
                <path d="M16.0188161,11.989852 L6.84312896,11.989852 C6.59513742,11.989852 6.39027484,11.7885835 6.39027484,11.5369979 C6.39027484,11.2890063 6.59154334,11.0841438 6.84312896,11.0841438 L16.0224101,11.0841438 C16.2704017,11.0841438 16.4752643,11.2854123 16.4752643,11.5369979 C16.4716702,11.7849894 16.2668076,11.989852 16.0188161,11.989852 Z" id="Fill-7"></path>
                <path d="M4.05412262,11.989852 L1.95158562,11.989852 C1.70359408,11.989852 1.4987315,11.7885835 1.4987315,11.5369979 C1.4987315,11.2890063 1.7,11.0841438 1.95158562,11.0841438 L4.05412262,11.0841438 C4.30211416,11.0841438 4.50697674,11.2854123 4.50697674,11.5369979 C4.50338266,11.7849894 4.30211416,11.989852 4.05412262,11.989852 Z" id="Fill-8"></path>
            </g>
        </g>
    </g>
</svg>